<svg width="15" height="24" viewBox="0 0 15 24" fill="none" xmlns="http://www.w3.org/2000/svg">
<g clip-path="url(#clip0_1795_341)">
<path d="M11.1002 0.135071C10.9143 0.135071 10.7642 0.285252 10.7642 0.470407C10.7642 0.656247 10.9143 0.807114 11.1002 0.807114H13.3865V1.47024H11.1002C10.9143 1.47024 10.7642 1.62042 10.7642 1.80626C10.7642 1.9921 10.9143 2.14297 11.1002 2.14297H13.3865V2.8061H11.1002C10.9143 2.8061 10.7642 2.95628 10.7642 3.14143C10.7642 3.32727 10.9143 3.47745 11.1002 3.47745H13.3865V4.14058H11.1002C10.9143 4.14058 10.7642 4.29145 10.7642 4.4766C10.7642 4.66313 10.9143 4.81331 11.1002 4.81331H13.3865V5.47644H11.1002C10.9143 5.47644 10.7642 5.62662 10.7642 5.81246C10.7642 5.9983 10.9143 6.14848 11.1002 6.14848H13.3865V6.81161H11.1002C10.9143 6.81161 10.7642 6.96179 10.7642 7.14763C10.7642 7.33347 10.9143 7.48434 11.1002 7.48434H13.3865V8.14747H11.1002C10.9143 8.14747 10.7642 8.29765 10.7642 8.4828C10.7642 8.66933 10.9143 8.81951 11.1002 8.81951H13.3865V9.48263H11.1002C10.9143 9.48263 10.7642 9.63282 10.7642 9.81866C10.7642 10.0045 10.9143 10.1547 11.1002 10.1547H13.3865V10.8178H11.1002C10.9143 10.8178 10.7642 10.9687 10.7642 11.1545C10.7642 11.3404 10.9143 11.4905 11.1002 11.4905H13.3865V12.153H11.1002C10.9143 12.153 10.7642 12.3045 10.7642 12.4904C10.7642 12.6755 10.9143 12.8257 11.1002 12.8257H11.5267C12.5533 12.8257 13.3995 13.5917 13.5271 14.584L14.1929 22.5916H15.0001V0.8126C15.0001 0.441605 14.699 0.140557 14.3274 0.140557L11.1002 0.135071Z" fill="white"/>
<path d="M3.9251 19.9226C3.9251 20.7757 3.2318 21.4704 2.3794 21.4704C1.96657 21.4704 1.57775 21.3079 1.28562 21.0157C0.993483 20.7243 0.833016 20.3362 0.833016 19.9226C0.833016 19.5098 0.993483 19.121 1.28562 18.8295C1.57775 18.5374 1.96657 18.3769 2.3794 18.3769C2.79223 18.3769 3.18036 18.5374 3.4725 18.8295C3.76532 19.121 3.9251 19.5098 3.9251 19.9226ZM4.82481 13.9113C4.62046 13.7083 4.36261 13.5773 4.08351 13.5341C4.05608 13.6493 4.04168 13.7597 4.0019 13.8701L2.6729 17.5883C2.5769 17.5767 2.47883 17.5698 2.3794 17.5698C1.07989 17.5698 0.0258789 18.6238 0.0258789 19.9226C0.0258789 21.2228 1.07989 22.2755 2.3794 22.2755C3.67891 22.2755 4.73223 21.2228 4.73223 19.9226C4.73223 19.1004 4.30981 18.3763 3.67 17.9552L5.0374 14.1876C4.97979 14.0882 4.90847 13.9956 4.82481 13.9113Z" fill="white"/>
<path d="M8.56584 21.4704C8.15233 21.4704 7.76351 21.3079 7.47206 21.0157C7.17924 20.7243 7.01946 20.3361 7.01946 19.9226C7.01946 19.5098 7.17924 19.121 7.47206 18.8295C7.76351 18.5374 8.15233 18.3769 8.56584 18.3769C8.97867 18.3769 9.36681 18.5374 9.65894 18.8295C9.95107 19.121 10.1115 19.5098 10.1115 19.9226C10.1115 20.7757 9.41824 21.4704 8.56584 21.4704ZM10.1801 22.5841C9.99496 22.3996 9.86261 22.176 9.79129 21.9319C10.4674 21.5184 10.9187 20.773 10.9187 19.9226C10.9187 18.6238 9.86467 17.5698 8.56584 17.5698C8.42526 17.5698 8.28811 17.5821 8.15507 17.6061L6.81579 13.8646C6.70744 13.5615 6.64161 13.2386 6.62446 12.9032L6.19655 0.161153C5.95311 0.0576041 5.68566 0 5.40519 0C5.12677 0 4.86069 0.0569184 4.61999 0.159096L4.19482 12.871C4.89704 12.9828 5.47856 13.458 5.74052 14.0978L7.17513 18.0245C6.59155 18.4531 6.21164 19.1429 6.21164 19.9226C6.21164 21.2228 7.26565 22.2755 8.56584 22.2755C8.72768 22.2755 8.88541 22.259 9.03902 22.2281C9.34829 23.167 10.2315 23.8438 11.2732 23.8438V23.0367C10.8604 23.0367 10.4722 22.8762 10.1801 22.5841Z" fill="white"/>
</g>
<defs>
<clipPath id="clip0_1795_341">
<rect width="15" height="24" fill="white"/>
</clipPath>
</defs>
</svg>
