<svg width="20" height="20" viewBox="0 0 20 20" fill="none" xmlns="http://www.w3.org/2000/svg">
<g clip-path="url(#clip0_1_242)">
<path d="M1.66667 10.17C1.66667 8.26246 1.66667 7.30913 2.10001 6.51913C2.53167 5.72829 3.3225 5.23829 4.90334 4.25663L6.57 3.22246C8.24084 2.18496 9.07667 1.66663 10 1.66663C10.9233 1.66663 11.7583 2.18496 13.43 3.22246L15.0967 4.25663C16.6775 5.23829 17.4683 5.72829 17.9008 6.51913C18.3333 7.30913 18.3333 8.26246 18.3333 10.1691V11.4375C18.3333 14.6875 18.3333 16.3133 17.3567 17.3233C16.3808 18.3333 14.8092 18.3333 11.6667 18.3333H8.33334C5.19084 18.3333 3.61917 18.3333 2.64334 17.3233C1.66667 16.3133 1.66667 14.6883 1.66667 11.4375V10.17Z" fill="#D9D9D9"/>
<path d="M1.66667 10.17C1.66667 8.26246 1.66667 7.30913 2.10001 6.51913C2.53167 5.72829 3.3225 5.23829 4.90334 4.25663L6.57 3.22246C8.24084 2.18496 9.07667 1.66663 10 1.66663C10.9233 1.66663 11.7583 2.18496 13.43 3.22246L15.0967 4.25663C16.6775 5.23829 17.4683 5.72829 17.9008 6.51913C18.3333 7.30913 18.3333 8.26246 18.3333 10.1691V11.4375C18.3333 14.6875 18.3333 16.3133 17.3567 17.3233C16.3808 18.3333 14.8092 18.3333 11.6667 18.3333H8.33334C5.19084 18.3333 3.61917 18.3333 2.64334 17.3233C1.66667 16.3133 1.66667 14.6883 1.66667 11.4375V10.17Z" fill="#FF7235"/>
<path d="M1.66667 10.17C1.66667 8.26246 1.66667 7.30913 2.10001 6.51913C2.53167 5.72829 3.3225 5.23829 4.90334 4.25663L6.57 3.22246C8.24084 2.18496 9.07667 1.66663 10 1.66663C10.9233 1.66663 11.7583 2.18496 13.43 3.22246L15.0967 4.25663C16.6775 5.23829 17.4683 5.72829 17.9008 6.51913C18.3333 7.30913 18.3333 8.26246 18.3333 10.1691V11.4375C18.3333 14.6875 18.3333 16.3133 17.3567 17.3233C16.3808 18.3333 14.8092 18.3333 11.6667 18.3333H8.33334C5.19084 18.3333 3.61917 18.3333 2.64334 17.3233C1.66667 16.3133 1.66667 14.6883 1.66667 11.4375V10.17Z" fill="#545454"/>
<path d="M1.66667 10.17C1.66667 8.26246 1.66667 7.30913 2.10001 6.51913C2.53167 5.72829 3.3225 5.23829 4.90334 4.25663L6.57 3.22246C8.24084 2.18496 9.07667 1.66663 10 1.66663C10.9233 1.66663 11.7583 2.18496 13.43 3.22246L15.0967 4.25663C16.6775 5.23829 17.4683 5.72829 17.9008 6.51913C18.3333 7.30913 18.3333 8.26246 18.3333 10.1691V11.4375C18.3333 14.6875 18.3333 16.3133 17.3567 17.3233C16.3808 18.3333 14.8092 18.3333 11.6667 18.3333H8.33334C5.19084 18.3333 3.61917 18.3333 2.64334 17.3233C1.66667 16.3133 1.66667 14.6883 1.66667 11.4375V10.17Z" stroke="#545454" stroke-width="1.5"/>
<path d="M1.66667 10.17C1.66667 8.26246 1.66667 7.30913 2.10001 6.51913C2.53167 5.72829 3.3225 5.23829 4.90334 4.25663L6.57 3.22246C8.24084 2.18496 9.07667 1.66663 10 1.66663C10.9233 1.66663 11.7583 2.18496 13.43 3.22246L15.0967 4.25663C16.6775 5.23829 17.4683 5.72829 17.9008 6.51913C18.3333 7.30913 18.3333 8.26246 18.3333 10.1691V11.4375C18.3333 14.6875 18.3333 16.3133 17.3567 17.3233C16.3808 18.3333 14.8092 18.3333 11.6667 18.3333H8.33334C5.19084 18.3333 3.61917 18.3333 2.64334 17.3233C1.66667 16.3133 1.66667 14.6883 1.66667 11.4375V10.17Z" stroke="#FF7235" stroke-width="1.5"/>
<path d="M1.66667 10.17C1.66667 8.26246 1.66667 7.30913 2.10001 6.51913C2.53167 5.72829 3.3225 5.23829 4.90334 4.25663L6.57 3.22246C8.24084 2.18496 9.07667 1.66663 10 1.66663C10.9233 1.66663 11.7583 2.18496 13.43 3.22246L15.0967 4.25663C16.6775 5.23829 17.4683 5.72829 17.9008 6.51913C18.3333 7.30913 18.3333 8.26246 18.3333 10.1691V11.4375C18.3333 14.6875 18.3333 16.3133 17.3567 17.3233C16.3808 18.3333 14.8092 18.3333 11.6667 18.3333H8.33334C5.19084 18.3333 3.61917 18.3333 2.64334 17.3233C1.66667 16.3133 1.66667 14.6883 1.66667 11.4375V10.17Z" stroke="#545454" stroke-width="1.5"/>
<path d="M10 12.5V15" stroke="white" stroke-width="1.5" stroke-linecap="round"/>
</g>
<defs>
<clipPath id="clip0_1_242">
<rect width="20" height="20" fill="white"/>
</clipPath>
</defs>
</svg>
